# xmcd
#
# Track frame offsets: 
#        150
#        11112
#        23315
#        39322
#        48745
#        67590
#        79900
#        95227
#        105252
#        118585
#        130857
#        141010
#        151190
#        164892
#        174965
#        188982
#        202177
#        216185
#        230097
#        242060
#        255315
#        266230
#
# Disc length: 3752 seconds
#
# Revision: 1
# Processed by: cddbd v1.5.2PL0 Copyright (c) Steve Scherf et al.
# Submitted via: ExactAudioCopy v0.99pb4
#
DISCID=310ea616
DTITLE=Rising Sons - Rising Sons Featuring Taj Mahal And Ry Cooder
DYEAR=1964
DGENRE=Blues
TTITLE0=Statesboro Blues
TTITLE1=If The River Was Whiskey (Divin' Duck Blues)
TTITLE2=By And By (Poor Me)
TTITLE3=Candy Man
TTITLE4=2:10 Train
TTITLE5=Let The Good Times Roll
TTITLE6=44 Blues
TTITLE7=11th Street Overcrossing
TTITLE8=Corrin, Corrina
TTITLE9=Tulsa County
TTITLE10=Walkin' Down The Line
TTITLE11=The Girl With Green Eyes
TTITLE12=Sunny's Dream
TTITLE13=Spanish Lace Blues
TTITLE14=The Devil's Got My Woman
TTITLE15=Take A Giant Step
TTITLE16=Flyin' So High
TTITLE17=Dust My Broom
TTITLE18=Last Fair Deal Gone Down
TTITLE19=Baby, What You Want Me To Do?
TTITLE20=Statesboro Blues Version 2
TTITLE21=I Got A Little
EXTD=© 1992\nLabel: Sony Music Entertainment Inc. - Columbia-Legacy
EXTT0=
EXTT1=
EXTT2=
EXTT3=
EXTT4=
EXTT5=
EXTT6=
EXTT7=
EXTT8=
EXTT9=
EXTT10=
EXTT11=
EXTT12=
EXTT13=
EXTT14=
EXTT15=
EXTT16=
EXTT17=
EXTT18=
EXTT19=
EXTT20=
EXTT21="I Got A LIttle" is a mono recording
PLAYORDER=
